<svg width="21" height="21" viewBox="0 0 21 21" fill="none" xmlns="http://www.w3.org/2000/svg">
<path id="Vector" d="M21 10.565C21 4.72852 16.2967 0 10.5 0C4.69941 0 0 4.72852 0 10.565C0 15.837 3.83841 20.2083 8.85938 21V13.6197H6.19303V10.5657H8.85938V8.23677C8.85938 5.58957 10.4245 4.12763 12.8238 4.12763C13.9729 4.12763 15.1758 4.33365 15.1758 4.33365V6.93331H13.8495C12.5475 6.93331 12.1406 7.7488 12.1406 8.5841V10.565H15.0524L14.5845 13.619H12.1406V20.9993C17.1577 20.2076 21 15.8363 21 10.5644V10.565Z" fill="black"/>
</svg>
