<svg width="21" height="21" viewBox="0 0 21 21" fill="none" xmlns="http://www.w3.org/2000/svg">
<g id="teenyicons:instagram-solid" clip-path="url(#clip0_39_304)">
<path id="Vector" d="M10.5 7C9.57174 7 8.6815 7.36875 8.02513 8.02513C7.36875 8.6815 7 9.57174 7 10.5C7 11.4283 7.36875 12.3185 8.02513 12.9749C8.6815 13.6313 9.57174 14 10.5 14C11.4283 14 12.3185 13.6313 12.9749 12.9749C13.6313 12.3185 14 11.4283 14 10.5C14 9.57174 13.6313 8.6815 12.9749 8.02513C12.3185 7.36875 11.4283 7 10.5 7Z" fill="black"/>
<path id="Vector_2" fill-rule="evenodd" clip-rule="evenodd" d="M6.3 0C4.62914 0 3.02671 0.663748 1.84523 1.84523C0.663748 3.02671 0 4.62914 0 6.3L0 14.7C0 16.3709 0.663748 17.9733 1.84523 19.1548C3.02671 20.3363 4.62914 21 6.3 21H14.7C16.3709 21 17.9733 20.3363 19.1548 19.1548C20.3363 17.9733 21 16.3709 21 14.7V6.3C21 4.62914 20.3363 3.02671 19.1548 1.84523C17.9733 0.663748 16.3709 0 14.7 0L6.3 0ZM5.6 10.5C5.6 9.20044 6.11625 7.95411 7.03518 7.03518C7.95411 6.11625 9.20044 5.6 10.5 5.6C11.7996 5.6 13.0459 6.11625 13.9648 7.03518C14.8838 7.95411 15.4 9.20044 15.4 10.5C15.4 11.7996 14.8838 13.0459 13.9648 13.9648C13.0459 14.8838 11.7996 15.4 10.5 15.4C9.20044 15.4 7.95411 14.8838 7.03518 13.9648C6.11625 13.0459 5.6 11.7996 5.6 10.5ZM15.4 5.6H16.8V4.2H15.4V5.6Z" fill="black"/>
</g>
<defs>
<clipPath id="clip0_39_304">
<rect width="21" height="21" fill="white"/>
</clipPath>
</defs>
</svg>
