<svg width="21" height="21" viewBox="0 0 21 21" fill="none" xmlns="http://www.w3.org/2000/svg">
<g id="icomoon-free:linkedin" clip-path="url(#clip0_39_307)">
<path id="Vector" d="M19.0312 0H1.96875C0.885938 0 0 0.885938 0 1.96875V19.0312C0 20.1141 0.885938 21 1.96875 21H19.0312C20.1141 21 21 20.1141 21 19.0312V1.96875C21 0.885938 20.1141 0 19.0312 0ZM7.875 17.0625H5.25V7.875H7.875V17.0625ZM6.5625 6.5625C6.2144 6.5625 5.88056 6.42422 5.63442 6.17808C5.38828 5.93194 5.25 5.5981 5.25 5.25C5.25 4.9019 5.38828 4.56806 5.63442 4.32192C5.88056 4.07578 6.2144 3.9375 6.5625 3.9375C6.9106 3.9375 7.24444 4.07578 7.49058 4.32192C7.73672 4.56806 7.875 4.9019 7.875 5.25C7.875 5.5981 7.73672 5.93194 7.49058 6.17808C7.24444 6.42422 6.9106 6.5625 6.5625 6.5625ZM17.0625 17.0625H14.4375V11.8125C14.4375 11.4644 14.2992 11.1306 14.0531 10.8844C13.8069 10.6383 13.4731 10.5 13.125 10.5C12.7769 10.5 12.4431 10.6383 12.1969 10.8844C11.9508 11.1306 11.8125 11.4644 11.8125 11.8125V17.0625H9.1875V7.875H11.8125V9.50381C12.3532 8.76094 13.1827 7.875 14.1094 7.875C15.7421 7.875 17.0625 9.34369 17.0625 11.1562V17.0625Z" fill="black"/>
</g>
<defs>
<clipPath id="clip0_39_307">
<rect width="21" height="21" fill="white"/>
</clipPath>
</defs>
</svg>
