<svg width="25" height="24" viewBox="0 0 25 24" fill="none" xmlns="http://www.w3.org/2000/svg">
<g id="material-symbols-light:arrow-drop-down-circle-outline-rounded">
<path id="Vector" d="M12.2082 14.17C12.2902 14.2567 12.3866 14.3 12.4972 14.3C12.6072 14.3 12.7056 14.2567 12.7922 14.17L14.8862 12.075C15.0109 11.9503 15.0409 11.8043 14.9762 11.637C14.9116 11.469 14.7889 11.385 14.6082 11.385H10.3832C10.2072 11.385 10.0872 11.469 10.0232 11.637C9.95924 11.8043 9.98924 11.9503 10.1132 12.075L12.2082 14.17ZM12.5032 21C11.2592 21 10.0892 20.764 8.99324 20.292C7.89791 19.8193 6.94491 19.178 6.13424 18.368C5.32358 17.5587 4.68191 16.6067 4.20924 15.512C3.73658 14.4173 3.50024 13.2477 3.50024 12.003C3.50024 10.759 3.73624 9.589 4.20824 8.493C4.68091 7.39767 5.32224 6.44467 6.13224 5.634C6.94158 4.82333 7.89358 4.18167 8.98824 3.709C10.0829 3.23633 11.2526 3 12.4972 3C13.7412 3 14.9112 3.236 16.0072 3.708C17.1026 4.18067 18.0556 4.822 18.8662 5.632C19.6769 6.44133 20.3186 7.39333 20.7912 8.488C21.2639 9.58267 21.5002 10.7523 21.5002 11.997C21.5002 13.241 21.2642 14.411 20.7922 15.507C20.3196 16.6023 19.6782 17.5553 18.8682 18.366C18.0589 19.1767 17.1069 19.8183 16.0122 20.291C14.9176 20.7637 13.7479 21 12.5032 21ZM12.5002 20C14.7336 20 16.6252 19.225 18.1752 17.675C19.7252 16.125 20.5002 14.2333 20.5002 12C20.5002 9.76667 19.7252 7.875 18.1752 6.325C16.6252 4.775 14.7336 4 12.5002 4C10.2669 4 8.37524 4.775 6.82524 6.325C5.27524 7.875 4.50024 9.76667 4.50024 12C4.50024 14.2333 5.27524 16.125 6.82524 17.675C8.37524 19.225 10.2669 20 12.5002 20Z" fill="black"/>
</g>
</svg>
