<svg width="79" height="79" viewBox="0 0 79 79" fill="none" xmlns="http://www.w3.org/2000/svg">
<g id="noto-v1:construction-worker-medium-skin-tone" clip-path="url(#clip0_67_314)">
<path id="Vector" d="M4.92517 72.933V79.037H58.7069V72.933C58.7069 63.5703 45.5052 58.818 32.0197 58.8365C18.6206 58.855 4.92517 63.021 4.92517 72.933Z" fill="#1565C0"/>
<path id="Vector_2" d="M31.8284 55.7505H26.2243V61.6693C26.2243 64.3479 28.5079 66.5204 31.3223 66.5204H32.3406C35.155 66.5204 37.4386 64.3479 37.4386 61.6693V55.7505H31.8284Z" fill="#99674F"/>
<path id="Vector_3" d="M37.5558 48.2579H26.1626C25.5083 48.2579 25.2306 48.6961 25.6626 49.3565C26.2675 50.2761 28.5079 52.0475 31.8592 52.0475C35.2105 52.0475 37.4509 50.2761 38.0558 49.3565C38.4878 48.6961 38.2101 48.2579 37.5558 48.2579Z" fill="#444444"/>
<path id="Vector_4" d="M34.581 43.4191C33.612 43.6907 32.606 43.8265 31.8283 43.8265C31.0507 43.8265 30.0447 43.6907 29.0757 43.4191C28.6622 43.3019 28.4955 43.6969 28.6498 43.9561C28.9584 44.4992 30.1928 45.5855 31.8283 45.5855C33.4639 45.5855 34.6983 44.493 35.0069 43.9561C35.155 43.6907 34.9945 43.3019 34.581 43.4191ZM51.6956 32.4023C51.6956 32.4023 55.3308 33.0319 55.3308 36.951C55.3308 40.4073 52.6769 41.7712 50.023 41.7712V32.4023H51.6956ZM12.029 32.4023C12.029 32.4023 8.39374 33.0319 8.39374 36.951C8.39374 40.4073 11.0476 41.7712 13.7016 41.7712V32.4023H12.029Z" fill="#99674F"/>
<path id="Vector_5" d="M31.8592 6.75208C16.1827 6.75208 12.0845 18.9045 12.0845 35.9759C12.0845 53.6768 23.4593 58.2564 31.8592 58.2564C40.1357 58.2564 51.6339 53.8126 51.6339 35.9759C51.6401 18.8983 47.5358 6.75208 31.8592 6.75208Z" fill="#BF8F68"/>
<path id="Vector_6" d="M25.3479 37.5559C25.3479 39.3211 24.1691 40.7468 22.7063 40.7468C21.2498 40.7468 20.0586 39.3149 20.0586 37.5559C20.0586 35.7908 21.2436 34.3589 22.7063 34.3589C24.1691 34.3589 25.3479 35.7908 25.3479 37.5559ZM38.3705 37.5559C38.3705 39.3211 39.5494 40.7468 41.0183 40.7468C42.4748 40.7468 43.6598 39.3149 43.6598 37.5559C43.6598 35.7908 42.4748 34.3589 41.0183 34.3589C39.5494 34.3589 38.3705 35.7908 38.3705 37.5559ZM37.5867 48.3382H26.1441C25.4898 48.3382 25.2059 48.7764 25.638 49.443C26.2428 50.3687 28.5017 52.1462 31.8654 52.1462C35.2291 52.1462 37.488 50.3687 38.0928 49.443C38.5248 48.7826 38.2409 48.3382 37.5867 48.3382Z" fill="#49362E"/>
<path id="Vector_7" d="M34.6242 43.4747C33.6491 43.7525 32.6369 43.8821 31.8592 43.8821C31.0816 43.8821 30.0694 43.7463 29.0942 43.4747C28.6807 43.3575 28.5141 43.7525 28.6622 44.0117C28.9708 44.5548 30.2175 45.6534 31.8592 45.6534C33.501 45.6534 34.7477 44.5548 35.0563 44.0117C35.2044 43.7525 35.0439 43.3575 34.6242 43.4747Z" fill="#99674F"/>
<path id="Vector_8" d="M32.3345 4.51779C32.3345 4.51779 32.0259 4.50544 31.8963 4.51162C31.7667 4.51162 31.4581 4.51779 31.4581 4.51779C14.541 4.8449 9.44299 15.0223 9.44299 22.0829C9.44299 28.9399 9.44917 33.9823 9.44917 33.9823C9.44917 33.9823 9.72073 33.7046 10.2145 33.3158C10.7453 32.9022 11.3316 32.6739 11.3316 32.6739L12.1833 38.4014L17.8182 26.6254C17.8553 26.5514 17.9293 26.5082 18.0096 26.5205L21.3485 26.8908C24.706 27.2611 28.0821 27.4463 31.4519 27.4525V27.4586C31.6 27.4586 31.742 27.4525 31.8901 27.4525C32.0382 27.4525 32.1802 27.4586 32.3283 27.4586V27.4525C35.6982 27.4401 39.0742 27.2611 42.4317 26.8908L45.7707 26.5205C45.8509 26.5143 45.9249 26.5576 45.962 26.6254L51.5969 38.4014L52.461 32.6677C52.461 32.6677 53.0473 32.9022 53.5781 33.3096C54.078 33.6984 54.3434 33.9761 54.3434 33.9761C54.3434 33.9761 54.3496 28.9399 54.3496 22.0768C54.3496 15.0223 49.2516 4.8449 32.3345 4.51779Z" fill="#6D4C41"/>
<path id="Vector_9" d="M22.4286 59.5833C21.3917 59.7561 20.3795 59.9598 19.392 60.1943C17.9663 60.5338 16.5962 60.935 15.3124 61.404C14.3064 61.7682 13.3436 62.1755 12.4487 62.6261V79.0186H28.656L24.8418 67.1007L22.4286 59.5833ZM48.4801 61.5398C47.1902 61.0461 45.82 60.6202 44.3881 60.2561C43.3451 59.9968 42.2712 59.7623 41.1726 59.5771L38.7655 67.1007L34.9513 79.0186H51.1587V62.7248C50.3131 62.2928 49.412 61.8978 48.4801 61.5398Z" fill="#FF6D00"/>
<path id="Vector_10" d="M15.3063 61.404L16.4234 79.0186H25.064L19.3859 60.1943C17.9602 60.5338 16.5962 60.935 15.3063 61.404ZM44.3881 60.2561L38.7285 79.0186H47.3692L48.4801 61.5398C47.1902 61.0461 45.82 60.6202 44.3881 60.2561Z" fill="#FFFF00"/>
<path id="Vector_11" d="M31.7975 30.4027C46.6489 30.4027 58.6883 27.2581 58.6883 23.3791C58.6883 19.5 46.6489 16.3555 31.7975 16.3555C16.9461 16.3555 4.90662 19.5 4.90662 23.3791C4.90662 27.2581 16.9461 30.4027 31.7975 30.4027Z" fill="#FFEA00"/>
<path id="Vector_12" d="M31.7975 29.1251C46.6489 29.1251 58.6883 25.9805 58.6883 22.1015C58.6883 18.2225 46.6489 15.0779 31.7975 15.0779C16.9461 15.0779 4.90662 18.2225 4.90662 22.1015C4.90662 25.9805 16.9461 29.1251 31.7975 29.1251Z" fill="#FFFF00"/>
<path id="Vector_13" d="M55.8061 21.1572C55.4049 13.5905 49.7021 0.876391 32.2665 0.549282C32.2665 0.549282 31.9394 0.536938 31.7975 0.54311C31.6555 0.54311 31.3284 0.549282 31.3284 0.549282C13.8867 0.876391 8.18388 13.5905 7.78888 21.1572C7.78888 27.076 55.8061 27.076 55.8061 21.1572Z" fill="#FFFF00"/>
<g id="Clip path group">
<mask id="mask0_67_314" style="mask-type:luminance" maskUnits="userSpaceOnUse" x="7" y="0" width="49" height="26">
<g id="notoV1ConstructionWorkerMediumSkinTone1">
<path id="Vector_14" d="M55.8061 21.1572C55.4049 13.5905 49.7021 0.876391 32.2665 0.549282C32.2665 0.549282 31.9394 0.536938 31.7975 0.54311C31.6555 0.54311 31.3284 0.549282 31.3284 0.549282C13.8867 0.876391 8.18388 13.5905 7.78888 21.1572C7.78888 27.076 55.8061 27.076 55.8061 21.1572Z" fill="white"/>
</g>
</mask>
<g mask="url(#mask0_67_314)">
<path id="Vector_15" d="M21.1201 1.99348L25.4096 0.543091V15.2013C24.5393 8.86895 23.2926 4.28325 21.1201 1.99348ZM42.4686 1.99348L38.1792 0.543091V15.2013C39.0556 8.86895 40.3023 4.28325 42.4686 1.99348Z" fill="#FFEA00"/>
</g>
</g>
<path id="Vector_16" d="M36.7659 23.2124H26.8292C25.9219 23.2124 25.1813 22.4718 25.1813 21.5645V1.81452C25.1813 0.907251 25.9219 0.166626 26.8292 0.166626H36.7659C37.6732 0.166626 38.4138 0.907251 38.4138 1.81452V21.5645C38.4138 22.478 37.6732 23.2124 36.7659 23.2124Z" fill="#FFFF00"/>
<path id="Vector_17" d="M62.8667 66.4155C63.7925 66.6439 64.385 67.2981 64.7985 68.1128C65.8292 67.9277 67.6067 67.7425 68.1252 67.7548C68.7362 67.7734 69.5447 67.8412 69.6805 69.0941C69.7669 69.9088 69.4583 70.5816 68.4152 70.6803C68.0264 70.7173 67.6252 70.742 67.2302 70.7605L67.3722 71.2173C67.7363 71.2111 68.0635 71.1987 68.3165 71.1987C69.3719 71.1864 69.9706 71.748 69.9706 72.8651C69.9706 73.8465 69.125 74.3094 68.5078 74.3464C68.1807 74.3649 67.2673 74.3155 66.3662 74.2291L66.2736 74.4205L66.2366 74.476C66.8044 74.5624 67.3475 74.655 67.7302 74.7229C68.7609 74.908 69.2546 75.5931 69.1374 76.4078C68.9954 77.3953 68.1128 77.6669 67.5018 77.6484C67.0451 77.636 65.4404 77.383 64.3665 77.1546L64.1567 77.457C64.2307 77.4694 64.3109 77.4817 64.3974 77.4941C64.4097 77.4941 64.422 77.5002 64.4406 77.5002L64.6566 77.5373C64.6751 77.5373 64.6874 77.5434 64.7059 77.5434C64.7924 77.5558 64.8788 77.5743 64.9652 77.5866H64.9775C65.0701 77.599 65.1627 77.6175 65.2552 77.636C65.2738 77.636 65.2923 77.6422 65.3046 77.6422L65.5206 77.6792C65.5515 77.6854 65.5762 77.6916 65.607 77.6916C65.6688 77.7039 65.7305 77.7162 65.786 77.7224L65.8786 77.7409C65.9403 77.7533 65.9959 77.7656 66.0514 77.7718L66.1378 77.7903C66.2181 77.8088 66.3045 77.8212 66.3785 77.8397C67.3228 78.0372 67.6808 78.463 67.5635 79.2098C67.4031 80.2591 66.3477 80.4936 65.786 80.438C65.2244 80.3887 63.3358 79.9998 62.7186 79.7283L62.6075 79.6727L62.3915 79.9813C59.6142 79.7962 57.6206 78.6359 57.6206 78.6359C55.9913 77.7224 55.7197 77.0188 55.4481 75.9017C55.1395 74.6303 55.2136 73.1244 55.226 72.8898C55.3247 70.3594 55.8863 68.7238 57.9292 67.366C58.423 67.0389 59.1451 66.4649 60.7436 66.2798C61.3608 66.218 62.2495 66.2612 62.8667 66.4155Z" fill="#BF8F68"/>
<path id="Vector_18" d="M65.175 70.6186C65.175 70.6186 65.1997 69.3472 64.7985 68.1128L65.2429 68.0326C65.2429 68.0326 65.5576 68.909 65.6687 70.2051C65.6872 70.4149 65.6934 70.6063 65.6934 70.7914L66.0884 70.7667L68.7361 70.6186C68.7361 70.6186 68.5386 70.6556 68.5386 70.9519C68.5386 71.0753 68.6127 71.1556 68.6683 71.2049C68.5572 71.1926 68.4337 71.1802 68.3103 71.1864L65.6811 71.2543C65.6749 71.3284 65.6749 71.4024 65.6687 71.4827C65.607 72.5566 65.354 73.5873 64.7553 73.9823C66.7426 74.2168 68.5078 74.3341 68.5078 74.3341C68.1622 74.476 68.3103 74.8957 68.3103 74.8957C66.971 74.5316 63.7246 74.3402 63.7246 74.3402C62.3544 74.223 62.1693 75.1488 62.1693 75.1488C61.9162 76.2659 63.1321 76.7781 63.1321 76.7781C63.2926 76.8707 64.7429 77.1608 65.7798 77.3583L66.8167 77.5496L67.1068 77.6052C67.0759 77.599 66.9525 77.5928 66.9031 77.7965C66.8784 77.8952 66.9031 77.9631 66.9216 78.0063C66.7673 77.9384 66.5822 77.8767 66.3661 77.8335C65.8786 77.7348 64.4035 77.4941 64.2924 77.4756L63.9221 77.4262C62.7001 77.2657 62.4038 77.4817 62.4038 77.4817C61.7249 77.8397 61.9224 78.7038 61.9224 78.7038C62.0705 79.537 62.9901 79.7962 62.9901 79.7962C63.3419 79.9011 65.2058 80.3517 65.2058 80.3517L62.3853 79.9813C62.1878 79.9196 62.1137 79.827 62.0026 79.7406C61.009 78.9259 61.4286 77.8212 61.4286 77.8212C61.5829 77.3953 61.9039 77.204 61.9039 77.204C62.0952 77.0867 62.3174 77.025 62.5458 77.0003C61.3916 76.3893 61.5768 75.1549 61.5768 75.1549C61.7249 74.3958 62.2742 74.0749 62.7062 73.9391C62.6692 73.9082 62.626 73.8774 62.589 73.8403C62.589 73.8403 61.8483 73.3527 62.1199 71.2605C62.2125 70.5569 62.2001 70.4581 62.1261 70.0138C62.1261 70.0138 61.8607 69.0633 61.0707 69.3657C61.0707 69.3657 60.8053 69.4336 60.3918 69.7607C60.3918 69.7607 60.0585 70.0199 60.0647 69.6126C60.0647 69.4892 60.1511 69.267 60.3177 69.0756C60.3177 69.0756 60.4905 68.872 60.9164 68.7547C60.9164 68.7547 62.0211 68.3165 62.5704 69.4213C62.8605 70.0014 62.805 70.3841 62.7124 70.9766C62.7124 70.9766 62.5396 72.8467 63.0272 73.4453C63.0272 73.4453 63.5086 73.9946 64.2801 73.6552C64.2862 73.6675 65.3354 73.0874 65.175 70.6186Z" fill="#99674F"/>
<path id="Vector_19" d="M59.4043 77.8643L63.8542 45.8199L68.7794 46.5606L63.4654 78.4753C63.342 79.2962 62.336 79.827 61.225 79.6603C60.1017 79.4937 59.2809 78.6852 59.4043 77.8643Z" fill="#F79329"/>
<path id="Vector_20" d="M53.9607 43.5241C56.0777 40.3086 59.7561 38.9816 62.6199 38.7471C63.3605 38.6854 64.1011 38.7841 64.6442 38.8458C65.5885 38.9569 67.5635 39.3519 67.5635 39.3519L70.0076 39.7778C70.0693 39.7901 70.1249 39.8086 70.1866 39.821C70.705 39.9012 71.2913 39.9506 71.8221 39.9012C72.4825 39.8395 72.8035 39.463 73.5503 39.3272C73.9082 39.2655 74.3032 39.2655 74.6427 39.2964C74.7599 39.2902 74.8772 39.2964 74.9945 39.3211L75.2413 39.3643C75.3771 39.3828 75.4635 39.4013 75.4635 39.4013L77.636 39.7778C78.5001 39.9259 79.0988 40.648 78.9753 41.3825L77.6978 48.7764C77.5681 49.5108 76.7596 49.9861 75.8956 49.8379L73.7231 49.4615C73.7231 49.4615 73.6305 49.4491 73.5009 49.4244L73.254 49.3812C73.1367 49.3627 73.0195 49.3257 72.9145 49.2886C72.5874 49.1961 71.6431 48.0296 71.3284 47.8506C70.668 47.4741 70.489 48.3382 69.662 48.5604C69.1929 48.6838 68.6313 48.585 68.4831 48.5604L68.2856 48.5233C68.1252 48.4986 67.977 48.474 67.8968 48.4554L63.5888 47.7086C62.984 47.6037 62.5211 47.2211 62.3298 46.752C62.2804 46.6224 62.1508 46.215 62.1261 46.1101C61.8854 45.0486 61.5089 43.6167 60.2499 43.4007C58.8735 43.16 57.3614 44.1475 57.3614 44.1475C57.3614 44.1475 56.0283 45.0856 54.7939 44.6721C53.5719 44.2647 53.9607 43.5241 53.9607 43.5241Z" fill="#78A3AD"/>
<path id="Vector_21" d="M64.4899 38.315C64.3973 38.5927 64.3912 38.926 64.3727 39.2161C64.3541 39.4753 64.4899 39.7407 64.6936 39.9073C64.9034 40.0801 65.1997 40.1974 65.4589 40.2838C65.9773 40.4566 66.4958 40.5924 67.0389 40.6603C67.3105 40.6973 67.5759 40.6788 67.8474 40.6603C68.1066 40.6479 68.3782 40.6541 68.6312 40.5739C68.8534 40.506 69.1065 40.4566 69.3225 40.364C69.5941 40.2468 69.7484 40.2097 69.8409 39.9197C69.9273 39.6481 70.0014 39.3951 70.0323 39.1111C70.0755 38.7161 70.0261 38.4631 69.6805 38.2347C69.0263 37.7965 68.1622 37.6854 67.4092 37.5867C66.6995 37.4941 65.9218 37.4879 65.2491 37.6916C64.8541 37.8212 64.6195 37.92 64.4899 38.315Z" fill="#F79329"/>
<path id="Vector_22" d="M74.513 42.5427C74.0131 42.3884 73.8218 42.265 73.7045 42.049C73.5502 41.7527 73.6737 41.3084 73.7909 40.9936C73.8958 40.7035 74.3217 40.6109 74.8463 40.6788C75.3709 40.7467 76.4819 40.8948 76.63 40.9319C76.8337 40.9813 77.025 41.0615 77.1608 41.1726C77.5434 41.4935 77.5434 42.1169 77.2719 42.518C77.1114 42.7588 76.8337 42.8328 76.5374 42.839C76.2165 42.8513 74.8401 42.6477 74.513 42.5427ZM70.3779 42.9007C69.594 43.0303 68.588 42.9809 68.3165 42.9809C67.2919 42.9748 65.965 42.8143 64.6874 42.4934C63.3604 42.1601 62.7309 41.5306 61.9903 41.3145C61.4101 41.1479 60.7065 41.222 60.1202 41.1479C60.0585 41.1417 59.719 41.0985 59.6265 40.9627C59.4722 40.722 59.7808 40.5307 60.3177 40.3517C60.5708 40.2653 61.7311 39.9197 62.9284 39.9073C62.9963 39.9073 63.2864 39.9135 63.416 40.0925C63.9962 40.8887 64.3603 41.2652 65.4095 41.4997C66.3662 41.7157 67.3845 41.8577 68.6004 41.8206C69.8162 41.7836 69.7915 41.1664 70.4211 41.2281C70.5692 41.2405 70.7605 41.2652 70.9272 41.296C71.2913 41.3701 71.3098 41.5984 71.2851 41.7466C71.2481 41.9811 71.174 42.2773 71.1432 42.4378C71.0876 42.7464 70.6186 42.8637 70.3779 42.9007Z" fill="white"/>
<path id="Vector_23" d="M68.4399 74.3402H68.5078C69.1188 74.3032 69.9644 73.8403 69.9706 72.859C69.9706 71.7851 69.4213 71.2296 68.4399 71.1988L68.3967 70.9704L68.7177 70.9519C69.2608 70.8223 69.5447 70.4952 69.6435 70.0755C69.6805 70.0138 69.6928 69.3102 69.6867 69.2299C69.6373 68.5695 69.3966 68.2609 69.3966 68.2609C69.1497 67.6314 67.6314 67.7734 67.6314 67.7734L64.8603 68.1437C64.7615 68.1128 64.6628 68.082 64.5702 68.0511C64.169 67.4216 63.6321 66.934 62.8606 66.7427C62.2434 66.5945 61.3608 66.5452 60.7374 66.6192C59.1389 66.8044 58.4168 67.3784 57.9231 67.7055C57.8181 67.7734 57.7317 67.8474 57.6392 67.9215C58.2008 68.9399 59.0525 70.0076 60.0956 69.8286C60.1635 69.6743 60.2745 69.5138 60.3239 69.4583C60.5461 69.2176 60.8547 69.0448 61.1818 69.0077C61.6941 68.946 62.2249 69.1991 62.5026 69.6311C62.9346 70.2977 62.4347 71.1802 62.4038 71.9764C62.3915 72.3529 62.7001 72.717 62.7742 73.0874C62.8421 73.4392 62.9778 73.8095 63.2803 74.0008C63.2988 74.0131 63.3296 74.0131 63.3481 74.0255C63.3296 74.0872 63.2864 74.2106 63.2371 74.3711C63.0396 74.3834 62.8482 74.4205 62.6816 74.5131C62.2989 74.7229 62.1014 75.1858 62.1508 75.6117C62.1878 75.9264 62.3545 76.2165 62.589 76.4325C62.4409 76.9139 62.3174 77.346 62.2557 77.599C61.8299 77.9261 61.7867 78.6235 62.0829 79.0864C62.3915 79.574 62.9593 79.8394 63.521 79.9813C64.0826 80.1233 64.6628 80.1727 65.2121 80.3578C65.1812 80.3516 65.1565 80.3516 65.1256 80.3455C65.4034 80.3948 65.6379 80.4319 65.786 80.4442C66.3415 80.4936 67.4031 80.2591 67.5635 79.216C67.6561 78.6174 67.4339 78.2285 66.8599 77.994C66.8167 77.8397 66.7427 77.6669 66.6995 77.5373C66.8044 77.5558 66.9155 77.5805 67.0204 77.599C67.2241 77.6237 67.3969 77.6422 67.5018 77.6422C68.1128 77.6607 69.0016 77.3892 69.1374 76.4017C69.2299 75.7474 68.9275 75.1858 68.2733 74.8895C68.0326 74.8402 67.7857 74.8031 67.545 74.7599C67.6438 74.5995 67.7425 74.439 67.8413 74.2847L68.4399 74.3402Z" fill="#BF8F68"/>
<path id="Vector_24" d="M68.7115 71.2172C68.6251 71.1061 68.6065 70.9271 68.6065 70.9271H68.588C68.3658 70.9086 65.7058 70.7975 65.7058 70.7975C65.6934 69.9396 65.3416 68.9151 65.1009 68.0942C64.9404 68.0757 64.7491 68.0942 64.5825 68.0387C64.7923 68.8472 65.1811 69.7915 65.2058 70.6185C65.2243 71.174 65.1873 71.7233 65.0701 72.2664C64.9775 72.7046 64.8293 73.149 64.5084 73.4638C64.1875 73.7785 63.6629 73.9082 63.2864 73.6674C62.984 73.4761 62.8543 73.1058 62.7803 72.754C62.7062 72.3837 62.6754 72.0072 62.6939 71.6369C62.7247 70.8407 62.9408 69.9705 62.5149 69.3039C62.2372 68.8719 61.7002 68.6189 61.1941 68.6806C60.867 68.7176 60.5584 68.8904 60.3362 69.1311C60.2313 69.2484 59.824 69.8285 60.2436 69.8409C60.3609 69.8409 60.4658 69.7607 60.5584 69.6866C60.8423 69.4582 61.2003 69.2484 61.5521 69.3533C61.9841 69.4829 62.1508 70.0075 62.1693 70.4581C62.194 71.0753 62.0643 71.6863 62.0643 72.2973C62.0643 72.9145 62.231 73.5749 62.7062 73.9637C62.0643 74.1056 61.5891 74.7414 61.5706 75.4017C61.5521 76.0621 61.9656 76.6917 62.5396 77.0126C62.0026 77.0249 61.5336 77.457 61.3916 77.9754C61.2497 78.4939 61.4101 79.0617 61.7372 79.4875C61.8792 79.6727 62.052 79.8331 62.2618 79.9319C62.305 79.9504 62.3544 79.9628 62.4038 79.9751L62.6013 79.6912L62.5334 79.7838L62.3976 79.9751C62.5396 80.0183 62.6939 80.043 62.842 80.0677C62.9284 80.08 63.0148 80.0924 63.1074 80.0985C63.7801 80.1849 64.4529 80.2714 65.1256 80.3516C65.1565 80.3578 65.1811 80.3578 65.212 80.3639C64.6627 80.1788 64.0825 80.1294 63.5209 79.9875C62.9593 79.8455 62.3976 79.5801 62.0829 79.0925C61.7743 78.6049 61.8298 77.8582 62.3174 77.5557C62.6136 77.3706 62.9778 77.3829 63.3234 77.4076C63.8727 77.4446 64.4158 77.5125 64.959 77.5989C65.1071 77.6236 65.2552 77.6483 65.3972 77.673L65.5083 77.6915C65.5391 77.6977 65.5638 77.7039 65.5947 77.7039C65.6564 77.7162 65.7181 77.7285 65.7736 77.7347L65.8662 77.7532C65.9279 77.7656 65.9835 77.7779 66.039 77.7841L66.1254 77.8026C66.2057 77.8211 66.2921 77.8335 66.3661 77.852C66.5328 77.889 66.6686 77.9322 66.7982 77.9754C66.8352 77.9878 66.8784 77.9939 66.9154 78.0063C66.829 77.8643 66.934 77.6483 67.0944 77.6236L67.008 77.6051L63.99 77.0126C63.595 76.9324 63.1876 76.8521 62.8482 76.6485C62.4779 76.4263 62.194 76.0436 62.1384 75.6116C62.0829 75.1796 62.2865 74.7167 62.6692 74.513C62.9593 74.3525 63.3049 74.3587 63.6382 74.3649C65.1873 74.4142 66.7365 74.5932 68.2609 74.8956C68.2733 74.8956 68.2918 74.9018 68.3041 74.9018C68.2054 74.7105 68.3041 74.4389 68.5016 74.3525C68.4769 74.3525 68.4522 74.3464 68.4337 74.3464C67.2117 74.2353 65.9897 74.118 64.7676 74.0069C65.5144 73.3527 65.6255 72.2479 65.6811 71.2604C65.6811 71.2542 68.588 71.2172 68.7115 71.2172Z" fill="#99674F"/>
</g>
<defs>
<clipPath id="clip0_67_314">
<rect width="79" height="79" fill="white"/>
</clipPath>
</defs>
</svg>
