<svg width="13" height="14" viewBox="0 0 13 14" fill="none" xmlns="http://www.w3.org/2000/svg">
<g id="Group">
<path id="Vector" d="M6.24096 11.956L0.524536 11.9683M11.936 1.94004L9.79232 1.94463M11.9574 11.9438L9.09918 11.9499M6.93411 1.95075L0.503123 1.96451M2.65749 6.9618L0.51383 6.96639M11.9467 6.94192L5.5157 6.95568" stroke="black" stroke-linecap="round"/>
<path id="Vector_2" d="M9.09951 11.9496C9.09782 11.1602 8.45652 10.5216 7.66711 10.5233C6.87771 10.525 6.23915 11.1663 6.24084 11.9557C6.24253 12.7451 6.88383 13.3836 7.67323 13.382C8.46263 13.3803 9.1012 12.739 9.09951 11.9496Z" stroke="black" stroke-linecap="round"/>
<path id="Vector_3" d="M5.51614 6.95541C5.51445 6.16601 4.87314 5.52745 4.08374 5.52914C3.29434 5.53083 2.65577 6.17213 2.65746 6.96153C2.65915 7.75093 3.30046 8.3895 4.08986 8.38781C4.87926 8.38612 5.51783 7.74481 5.51614 6.95541Z" stroke="black" stroke-linecap="round"/>
<path id="Vector_4" d="M9.79275 1.94418C9.79106 1.15478 9.14975 0.516216 8.36035 0.517906C7.57095 0.519596 6.93238 1.1609 6.93407 1.9503C6.93576 2.7397 7.57707 3.37827 8.36647 3.37658C9.15587 3.37489 9.79444 2.73358 9.79275 1.94418Z" stroke="black" stroke-linecap="round"/>
</g>
</svg>
