<svg width="13" height="19" viewBox="0 0 13 19" fill="none" xmlns="http://www.w3.org/2000/svg">
<path id="Vector" d="M6.50012 9.05C5.9318 9.05 5.38676 8.81295 4.98489 8.39099C4.58303 7.96903 4.35726 7.39674 4.35726 6.8C4.35726 6.20326 4.58303 5.63097 4.98489 5.20901C5.38676 4.78705 5.9318 4.55 6.50012 4.55C7.06844 4.55 7.61349 4.78705 8.01535 5.20901C8.41721 5.63097 8.64298 6.20326 8.64298 6.8C8.64298 7.09547 8.58755 7.38806 8.47986 7.66104C8.37218 7.93402 8.21433 8.18206 8.01535 8.39099C7.81637 8.59992 7.58014 8.76566 7.32016 8.87873C7.06017 8.9918 6.78153 9.05 6.50012 9.05ZM6.50012 0.5C4.90882 0.5 3.3827 1.16375 2.25748 2.34523C1.13226 3.52671 0.500122 5.12914 0.500122 6.8C0.500122 11.525 6.50012 18.5 6.50012 18.5C6.50012 18.5 12.5001 11.525 12.5001 6.8C12.5001 5.12914 11.868 3.52671 10.7428 2.34523C9.61754 1.16375 8.09142 0.5 6.50012 0.5Z" fill="#5D5A5A"/>
</svg>
