<svg width="12" height="10" viewBox="0 0 12 10" fill="none" xmlns="http://www.w3.org/2000/svg">
<path id="Vector" d="M6 10L5.2025 9.29155C4.27667 8.46503 3.51125 7.75204 2.90625 7.15259C2.30125 6.55313 1.82 6.0149 1.4625 5.53788C1.105 5.06122 0.8553 4.62307 0.7134 4.22343C0.5715 3.8238 0.500367 3.41508 0.5 2.99727C0.5 2.14351 0.78875 1.43052 1.36625 0.858311C1.94375 0.286103 2.66333 0 3.525 0C4.00167 0 4.45542 0.0999091 4.88625 0.299727C5.31708 0.499546 5.68833 0.781108 6 1.14441C6.31167 0.781108 6.68292 0.499546 7.11375 0.299727C7.54458 0.0999091 7.99833 0 8.475 0C9.33667 0 10.0562 0.286103 10.6337 0.858311C11.2112 1.43052 11.5 2.14351 11.5 2.99727C11.5 3.41508 11.4291 3.8238 11.2872 4.22343C11.1453 4.62307 10.8954 5.06122 10.5375 5.53788C10.18 6.0149 9.69875 6.55313 9.09375 7.15259C8.48875 7.75204 7.72333 8.46503 6.7975 9.29155L6 10ZM6 8.52861C6.88 7.7475 7.60417 7.07775 8.1725 6.51935C8.74083 5.96094 9.19 5.47502 9.52 5.06158C9.85 4.64814 10.0792 4.28011 10.2075 3.95749C10.3358 3.63488 10.4 3.3148 10.4 2.99727C10.4 2.45232 10.2167 1.99818 9.85 1.63488C9.48333 1.27157 9.025 1.08992 8.475 1.08992C8.04417 1.08992 7.64542 1.21017 7.27875 1.45068C6.91208 1.69119 6.66 1.99782 6.5225 2.37057H5.4775C5.34 1.99818 5.08792 1.69173 4.72125 1.45123C4.35458 1.21072 3.95583 1.09028 3.525 1.08992C2.975 1.08992 2.51667 1.27157 2.15 1.63488C1.78333 1.99818 1.6 2.45232 1.6 2.99727C1.6 3.31517 1.66417 3.63542 1.7925 3.95804C1.92083 4.28065 2.15 4.6485 2.48 5.06158C2.81 5.47466 3.25917 5.96058 3.8275 6.51935C4.39583 7.07811 5.12 7.74787 6 8.52861Z" fill="#E31D1D"/>
</svg>
