<svg width="16" height="15" viewBox="0 0 16 15" fill="none" xmlns="http://www.w3.org/2000/svg">
<g id="teenyicons:instagram-solid" clip-path="url(#clip0_67_17)">
<path id="Vector" d="M8.0001 5.09998C7.36358 5.09998 6.75313 5.35283 6.30304 5.80292C5.85295 6.25301 5.6001 6.86346 5.6001 7.49998C5.6001 8.1365 5.85295 8.74694 6.30304 9.19703C6.75313 9.64712 7.36358 9.89998 8.0001 9.89998C8.63662 9.89998 9.24707 9.64712 9.69715 9.19703C10.1472 8.74694 10.4001 8.1365 10.4001 7.49998C10.4001 6.86346 10.1472 6.25301 9.69715 5.80292C9.24707 5.35283 8.63662 5.09998 8.0001 5.09998Z" fill="white"/>
<path id="Vector_2" fill-rule="evenodd" clip-rule="evenodd" d="M5.12005 0.299988C3.97431 0.299988 2.8755 0.755129 2.06535 1.56529C1.25519 2.37544 0.800049 3.47425 0.800049 4.61999L0.800049 10.38C0.800049 11.5257 1.25519 12.6245 2.06535 13.4347C2.8755 14.2448 3.97431 14.7 5.12005 14.7H10.88C12.0258 14.7 13.1246 14.2448 13.9347 13.4347C14.7449 12.6245 15.2 11.5257 15.2 10.38V4.61999C15.2 3.47425 14.7449 2.37544 13.9347 1.56529C13.1246 0.755129 12.0258 0.299988 10.88 0.299988L5.12005 0.299988ZM4.64005 7.49999C4.64005 6.60886 4.99405 5.75423 5.62417 5.12411C6.25429 4.49399 7.10892 4.13999 8.00005 4.13999C8.89118 4.13999 9.7458 4.49399 10.3759 5.12411C11.006 5.75423 11.36 6.60886 11.36 7.49999C11.36 8.39112 11.006 9.24574 10.3759 9.87587C9.7458 10.506 8.89118 10.86 8.00005 10.86C7.10892 10.86 6.25429 10.506 5.62417 9.87587C4.99405 9.24574 4.64005 8.39112 4.64005 7.49999ZM11.36 4.13999H12.32V3.17999H11.36V4.13999Z" fill="white"/>
</g>
<defs>
<clipPath id="clip0_67_17">
<rect width="14.4" height="14.4" fill="white" transform="translate(0.800049 0.299988)"/>
</clipPath>
</defs>
</svg>
