<svg width="36" height="37" viewBox="0 0 36 37" fill="none" xmlns="http://www.w3.org/2000/svg">
<g id="Dribbble">
<circle id="Ellipse 3" cx="18" cy="18.5" r="18" fill="#E31D1D"/>
<path id="Vector" d="M26.3 20.8886V26.8H23.0404V21.2711C23.0404 19.718 22.4861 18.9414 21.3774 18.9414C20.557 18.9414 19.9915 19.3586 19.6811 20.1932C19.6146 20.3555 19.5813 20.6336 19.5813 21.0277V26.8H16.2885C16.3107 20.5641 16.3107 17.1216 16.2885 16.4725H19.5813V17.933L19.548 17.9677H19.5813V17.933C20.2909 16.797 21.2776 16.2291 22.5415 16.2291C23.6724 16.2291 24.5815 16.6232 25.2689 17.4114C25.9563 18.1995 26.3 19.3586 26.3 20.8886ZM12.8626 11.5C12.3083 11.5 11.8592 11.6681 11.5155 12.0042C11.1718 12.3403 11 12.7634 11 13.2734C11 13.7834 11.1663 14.2123 11.4989 14.56C11.8315 14.9077 12.2639 15.0816 12.7961 15.0816H12.8293C13.3837 15.0816 13.8327 14.9077 14.1764 14.56C14.5201 14.2123 14.692 13.7834 14.692 13.2734C14.6698 12.7634 14.4924 12.3403 14.1598 12.0042C13.8272 11.6681 13.3948 11.5 12.8626 11.5ZM11.1663 26.8H14.4591V16.4725H11.1663V26.8Z" fill="white"/>
</g>
</svg>
