<svg width="49" height="37" viewBox="0 0 49 37" fill="none" xmlns="http://www.w3.org/2000/svg">
<path id="Vector" fill-rule="evenodd" clip-rule="evenodd" d="M6.125 0C4.50055 0 2.94263 0.6497 1.79397 1.80617C0.64531 2.96265 0 4.53116 0 6.16667V15.4167C0 18.8083 2.75625 21.5833 6.125 21.5833H15.3125C15.3125 24.0366 14.3445 26.3894 12.6215 28.1241C10.8986 29.8588 8.56168 30.8333 6.125 30.8333H3.0625C2.25027 30.8333 1.47132 31.1582 0.896986 31.7364C0.322656 32.3147 0 33.0989 0 33.9167C0 34.7344 0.322656 35.5187 0.896986 36.0969C1.47132 36.6752 2.25027 37 3.0625 37H6.125C10.1861 37 14.0809 35.3757 16.9526 32.4846C19.8242 29.5934 21.4375 25.6721 21.4375 21.5833V6.16667C21.4375 4.53116 20.7922 2.96265 19.6435 1.80617C18.4949 0.6497 16.937 0 15.3125 0H6.125ZM33.6875 0C32.063 0 30.5051 0.6497 29.3565 1.80617C28.2078 2.96265 27.5625 4.53116 27.5625 6.16667V15.4167C27.5625 18.8083 30.3188 21.5833 33.6875 21.5833H42.875C42.875 24.0366 41.907 26.3894 40.184 28.1241C38.4611 29.8588 36.1242 30.8333 33.6875 30.8333H30.625C29.8128 30.8333 29.0338 31.1582 28.4595 31.7364C27.8852 32.3147 27.5625 33.0989 27.5625 33.9167C27.5625 34.7344 27.8852 35.5187 28.4595 36.0969C29.0338 36.6752 29.8128 37 30.625 37H33.6875C37.7486 37 41.6434 35.3757 44.5151 32.4846C47.3867 29.5934 49 25.6721 49 21.5833V6.16667C49 4.53116 48.3547 2.96265 47.206 1.80617C46.0574 0.6497 44.4995 0 42.875 0H33.6875Z" fill="#E31D1D"/>
</svg>
